<svg width="64" height="64" viewBox="0 0 24 24" fill="none" xmlns="http://www.w3.org/2000/svg">
    <path fill-rule="evenodd" clip-rule="evenodd" d="M15.707 13.293a1 1 0 00-1.414 0l-1.293 1.293a5.978 5.978 0 00-2.414-1.414l-.293-1.707a1 1 0 00-1-1h-2a1 1 0 00-1 1l-.293 1.707a5.978 5.978 0 00-2.414 1.414l-1.293-1.293a1 1 0 00-1.414 1.414l1.293 1.293a5.978 5.978 0 00-1.414 2.414l-1.707.293a1 1 0 00-1 1v2a1 1 0 001 1l1.707-.293a5.978 5.978 0 002.414 1.414l-1.293 1.293a1 1 0 001.414 1.414l1.293-1.293a5.978 5.978 0 002.414 1.414l.293 1.707a1 1 0 001 1h2a1 1 0 001-1l.293-1.707a5.978 5.978 0 002.414-1.414l1.293 1.293a1 1 0 001.414-1.414l-1.293-1.293a5.978 5.978 0 001.414-2.414l1.707-.293a1 1 0 001-1v-2a1 1 0 00-1-1l-1.707.293a5.978 5.978 0 00-1.414-2.414l1.293-1.293a1 1 0 00-1.414-1.414l-1.293 1.293a5.978 5.978 0 00-2.414-1.414l.293-1.707a1 1 0 00-1-1h-2a1 1 0 00-1 1l-.293 1.707a5.978 5.978 0 00-2.414 1.414l-1.293-1.293zM12 7.5a4.5 4.5 0 100 9 4.5 4.5 0 000-9z" fill="#000000"/>
</svg>
